# xmcd
#
# Track frame offsets: 
#        150
#        12995
#        28172
#        40477
#        55640
#        68697
#        79832
#        92052
#        106465
#        121752
#        132620
#        154910
#
# Disc length: 2157 seconds
#
# Revision: 0
# Processed by: cddbd v1.5.1PL2 Copyright (c) Steve Scherf et al.
# Submitted via: ExactAudioCopy v0.95b2
#
DISCID=9d086b0c
DTITLE=Γιάννης Ζουγανέλης - Ο Μακρυμάλλης
DYEAR=1993
DGENRE=Folk
TTITLE0=Ο Μακρυμάλλης
TTITLE1=Πω Πω Πω (Με Ελένη Γερασιμίδου)
TTITLE2=Το Κοκοράκι
TTITLE3=Ο Γαύρος, Η Βαζέλα Και Το Χανουμάκη
TTITLE4=Ροδόλφο Βαλεντίνο
TTITLE5=Απίστευτα Και Ελληνικά
TTITLE6=Ο Γιαννάκης
TTITLE7=Δεν Είναι Σωστά Πράγματα Αυτά
TTITLE8=Που Το Πάει Η Ομάς
TTITLE9=Παράνομος Κι Ωραίος
TTITLE10=Εκτονώσου
TTITLE11=Σώστε Τη Χελώνα Καρέτα - Καρέτα
EXTD=
EXTT0=
EXTT1=
EXTT2=
EXTT3=
EXTT4=
EXTT5=
EXTT6=
EXTT7=
EXTT8=
EXTT9=
EXTT10=
EXTT11=
PLAYORDER=
